<svg width="159" height="54" viewBox="0 0 159 54" fill="none" xmlns="http://www.w3.org/2000/svg">
<path d="M136.967 51L155.62 39.8172C156.098 39.5969 156.133 38.9388 155.68 38.6708L136.967 25M75 38.6708L154.107 39.3" stroke="#EC5658" stroke-width="4.5" stroke-linecap="round"/>
<path d="M7.05003 25C5.59066 25 4.26006 24.8327 3.05823 24.498C1.8564 24.1633 0.83699 23.6948 0 23.0924L1.25549 19.7456C2.09248 20.2811 3.01531 20.705 4.02399 21.0174C5.05413 21.3298 6.07354 21.4859 7.08222 21.4859C8.02652 21.4859 8.72401 21.3298 9.1747 21.0174C9.62539 20.705 9.85073 20.2811 9.85073 19.7456C9.85073 19.2994 9.7005 18.9536 9.40004 18.7082C9.12105 18.4627 8.68109 18.2842 8.08017 18.1727L4.7644 17.5368C3.36942 17.2468 2.30709 16.7113 1.5774 15.9304C0.847721 15.1495 0.482879 14.1343 0.482879 12.8849C0.482879 11.7916 0.761876 10.8322 1.31987 10.0067C1.89932 9.15886 2.72558 8.50067 3.79865 8.03213C4.87171 7.56359 6.1272 7.32932 7.5651 7.32932C8.7884 7.32932 9.9473 7.4855 11.0418 7.79786C12.1364 8.11022 13.0699 8.58992 13.8425 9.23695L12.5227 12.4833C11.8574 11.9701 11.0848 11.5573 10.2048 11.245C9.34639 10.9326 8.52013 10.7764 7.72606 10.7764C6.69592 10.7764 5.95551 10.9549 5.50482 11.3119C5.05413 11.6466 4.82879 12.0817 4.82879 12.6171C4.82879 13.0187 4.95756 13.3534 5.21509 13.6212C5.49409 13.8889 5.91258 14.0897 6.47058 14.2236L9.81854 14.8594C11.2564 15.1272 12.351 15.6292 13.1021 16.3655C13.8533 17.1017 14.2288 18.1169 14.2288 19.411C14.2288 20.5935 13.9284 21.5975 13.3275 22.423C12.7265 23.2486 11.8788 23.8844 10.7843 24.3307C9.71123 24.7769 8.46648 25 7.05003 25ZM24.7241 25C22.5995 25 21.0006 24.4534 19.9276 23.3601C18.8545 22.2445 18.318 20.5823 18.318 18.3735V11.4458H15.2275V7.66399H18.318V3.51406L23.1789 2.27577V7.66399H27.3639V11.4458H23.1789V18.1058C23.1789 19.1767 23.3936 19.913 23.8228 20.3146C24.252 20.7162 24.7993 20.917 25.4646 20.917C25.8724 20.917 26.205 20.8947 26.4626 20.8501C26.7416 20.7831 27.0313 20.6939 27.3317 20.5823V24.498C26.924 24.6765 26.4948 24.7992 26.0441 24.8661C25.5933 24.9554 25.1534 25 24.7241 25ZM35.7816 25C33.7428 25 32.2298 24.4199 31.2425 23.2597C30.2553 22.0772 29.7617 20.2923 29.7617 17.905V7.66399H34.6227V17.905C34.6227 18.9759 34.8266 19.768 35.2343 20.2811C35.6636 20.7943 36.3181 21.0509 37.198 21.0509C38.1638 21.0509 38.9579 20.705 39.5802 20.0134C40.2241 19.2994 40.546 18.3512 40.546 17.1687V7.66399H45.407V24.6319H40.6748V21.3855H41.1255C40.6318 22.5234 39.9236 23.4159 39.0008 24.0629C38.0994 24.6876 37.0263 25 35.7816 25ZM55.8186 25C54.4022 25 53.1467 24.643 52.0522 23.929C50.9791 23.2151 50.1314 22.1999 49.509 20.8835C48.9081 19.5672 48.6077 17.983 48.6077 16.1312C48.6077 14.3016 48.9081 12.7287 49.509 11.4123C50.11 10.0959 50.9577 9.09192 52.0522 8.40027C53.1467 7.6863 54.4022 7.32932 55.8186 7.32932C57.1063 7.32932 58.2545 7.65283 59.2632 8.29987C60.2933 8.92459 60.9801 9.77242 61.3235 10.8434H60.905V0H65.766V24.6319H60.9694V21.3186H61.3879C61.0445 22.4342 60.3577 23.3266 59.3276 23.996C58.2974 24.6653 57.1278 25 55.8186 25ZM57.2673 21.1847C58.3833 21.1847 59.2846 20.772 59.9714 19.9465C60.6582 19.1209 61.0015 17.8492 61.0015 16.1312C61.0015 14.4132 60.6582 13.1526 59.9714 12.3494C59.2846 11.5462 58.3833 11.1446 57.2673 11.1446C56.1513 11.1446 55.2392 11.5462 54.531 12.3494C53.8442 13.1526 53.5008 14.4132 53.5008 16.1312C53.5008 17.8492 53.8442 19.1209 54.531 19.9465C55.2392 20.772 56.1513 21.1847 57.2673 21.1847ZM79.7319 25C78.4227 25 77.2531 24.6653 76.223 23.996C75.2143 23.3266 74.5383 22.4342 74.1949 21.3186H74.549V24.6319H69.7524V0H74.6134V10.8434H74.1949C74.5597 9.77242 75.2465 8.92459 76.2552 8.29987C77.2853 7.65283 78.4442 7.32932 79.7319 7.32932C81.1698 7.32932 82.4253 7.6863 83.4983 8.40027C84.5714 9.11423 85.4084 10.1294 86.0093 11.4458C86.6317 12.7622 86.9429 14.3463 86.9429 16.1981C86.9429 18.0277 86.6317 19.6006 86.0093 20.917C85.4084 22.2334 84.5607 23.2486 83.4661 23.9625C82.3931 24.6542 81.1483 25 79.7319 25ZM78.2832 21.1847C79.3778 21.1847 80.2791 20.7831 80.9874 19.9799C81.6956 19.1767 82.0497 17.9161 82.0497 16.1981C82.0497 14.4801 81.6956 13.2084 80.9874 12.3829C80.2791 11.5573 79.3778 11.1446 78.2832 11.1446C77.1673 11.1446 76.2552 11.5462 75.5469 12.3494C74.8602 13.1526 74.5168 14.4132 74.5168 16.1312C74.5168 17.8492 74.8602 19.1209 75.5469 19.9465C76.2552 20.772 77.1673 21.1847 78.2832 21.1847ZM96.0156 25C93.9768 25 92.4638 24.4199 91.4766 23.2597C90.4894 22.0772 89.9957 20.2923 89.9957 17.905V7.66399H94.8567V17.905C94.8567 18.9759 95.0606 19.768 95.4684 20.2811C95.8976 20.7943 96.5522 21.0509 97.4321 21.0509C98.3978 21.0509 99.1919 20.705 99.8143 20.0134C100.458 19.2994 100.78 18.3512 100.78 17.1687V7.66399H105.641V24.6319H100.909V21.3855H101.359C100.866 22.5234 100.158 23.4159 99.2348 24.0629C98.3335 24.6876 97.2604 25 96.0156 25ZM116.053 25C114.636 25 113.381 24.643 112.286 23.929C111.213 23.2151 110.365 22.1999 109.743 20.8835C109.142 19.5672 108.842 17.983 108.842 16.1312C108.842 14.3016 109.142 12.7287 109.743 11.4123C110.344 10.0959 111.192 9.09192 112.286 8.40027C113.381 7.6863 114.636 7.32932 116.053 7.32932C117.34 7.32932 118.489 7.65283 119.497 8.29987C120.527 8.92459 121.214 9.77242 121.558 10.8434H121.139V0H126V24.6319H121.203V21.3186H121.622C121.279 22.4342 120.592 23.3266 119.562 23.996C118.531 24.6653 117.362 25 116.053 25ZM117.501 21.1847C118.617 21.1847 119.519 20.772 120.205 19.9465C120.892 19.1209 121.236 17.8492 121.236 16.1312C121.236 14.4132 120.892 13.1526 120.205 12.3494C119.519 11.5462 118.617 11.1446 117.501 11.1446C116.385 11.1446 115.473 11.5462 114.765 12.3494C114.078 13.1526 113.735 14.4132 113.735 16.1312C113.735 17.8492 114.078 19.1209 114.765 19.9465C115.473 20.772 116.385 21.1847 117.501 21.1847Z" fill="black"/>
</svg>
