<svg width="161" height="53" viewBox="0 0 161 53" fill="none" xmlns="http://www.w3.org/2000/svg">
<path d="M73.296 31.5527V21.6827H77.958C79.0967 21.6827 79.974 21.9534 80.59 22.4947C81.2153 23.0361 81.528 23.7874 81.528 24.7487C81.528 25.3927 81.388 25.9434 81.108 26.4007C80.828 26.8487 80.422 27.1987 79.89 27.4507C79.358 27.6934 78.7233 27.8147 77.986 27.8147L78.112 27.4647H78.812C79.2227 27.4647 79.5867 27.5767 79.904 27.8007C80.2213 28.0247 80.4827 28.3374 80.688 28.7387L82.186 31.5527H79.358L77.748 28.4027C77.6453 28.1974 77.4913 28.0574 77.286 27.9827C77.09 27.9081 76.866 27.8707 76.614 27.8707H75.886V31.5527H73.296ZM75.886 26.0367H77.51C78.014 26.0367 78.3967 25.9387 78.658 25.7427C78.9193 25.5374 79.05 25.2341 79.05 24.8327C79.05 24.4407 78.9193 24.1467 78.658 23.9507C78.3967 23.7547 78.014 23.6567 77.51 23.6567H75.886V26.0367ZM86.697 31.7067C85.409 31.7067 84.4057 31.3754 83.687 30.7127C82.9777 30.0501 82.623 29.1401 82.623 27.9827C82.623 27.2641 82.7724 26.6247 83.071 26.0647C83.3697 25.5047 83.7897 25.0707 84.331 24.7627C84.8724 24.4454 85.507 24.2867 86.235 24.2867C86.9537 24.2867 87.551 24.4454 88.027 24.7627C88.5124 25.0707 88.8764 25.5001 89.119 26.0507C89.3617 26.5921 89.483 27.2221 89.483 27.9407V28.4727H84.709V27.2967H87.649L87.411 27.4927C87.411 26.9607 87.3084 26.5687 87.103 26.3167C86.907 26.0554 86.627 25.9247 86.263 25.9247C85.843 25.9247 85.521 26.0834 85.297 26.4007C85.0824 26.7087 84.975 27.1754 84.975 27.8007V28.0527C84.975 28.6781 85.129 29.1354 85.437 29.4247C85.745 29.7141 86.1884 29.8587 86.767 29.8587C87.1404 29.8587 87.4904 29.8167 87.817 29.7327C88.153 29.6487 88.4704 29.5134 88.769 29.3267L89.413 30.9507C89.0584 31.1934 88.6477 31.3801 88.181 31.5107C87.7144 31.6414 87.2197 31.7067 86.697 31.7067ZM93.4697 31.7067C92.8537 31.7067 92.3123 31.5621 91.8457 31.2727C91.379 30.9741 91.0103 30.5447 90.7397 29.9847C90.4783 29.4247 90.3477 28.7621 90.3477 27.9967C90.3477 27.2221 90.4783 26.5594 90.7397 26.0087C91.0103 25.4487 91.379 25.0241 91.8457 24.7347C92.3123 24.4361 92.8537 24.2867 93.4697 24.2867C94.0203 24.2867 94.515 24.4174 94.9537 24.6787C95.4017 24.9401 95.6957 25.2807 95.8357 25.7007H95.6957L95.8497 24.4407H98.2437C98.2157 24.7581 98.1877 25.0801 98.1597 25.4067C98.141 25.7334 98.1317 26.0554 98.1317 26.3727V31.5527H95.6677L95.6397 30.3487H95.8077C95.6677 30.7594 95.3737 31.0907 94.9257 31.3427C94.487 31.5854 94.0017 31.7067 93.4697 31.7067ZM94.2677 29.8587C94.6877 29.8587 95.0283 29.7141 95.2897 29.4247C95.551 29.1261 95.6817 28.6501 95.6817 27.9967C95.6817 27.3434 95.551 26.8721 95.2897 26.5827C95.0283 26.2841 94.6877 26.1347 94.2677 26.1347C93.8477 26.1347 93.507 26.2841 93.2457 26.5827C92.9843 26.8721 92.8537 27.3434 92.8537 27.9967C92.8537 28.6501 92.9797 29.1261 93.2317 29.4247C93.493 29.7141 93.8383 29.8587 94.2677 29.8587ZM102.507 31.7067C101.901 31.7067 101.359 31.5621 100.883 31.2727C100.407 30.9741 100.034 30.5447 99.7634 29.9847C99.4928 29.4247 99.3574 28.7621 99.3574 27.9967C99.3574 27.2221 99.4881 26.5594 99.7494 26.0087C100.02 25.4487 100.393 25.0241 100.869 24.7347C101.355 24.4361 101.901 24.2867 102.507 24.2867C103.049 24.2867 103.539 24.4127 103.977 24.6647C104.416 24.9074 104.71 25.2341 104.859 25.6447H104.649V21.2487H107.141V31.5527H104.691V30.2787H104.873C104.743 30.7081 104.453 31.0534 104.005 31.3147C103.567 31.5761 103.067 31.7067 102.507 31.7067ZM103.305 29.8587C103.716 29.8587 104.052 29.7141 104.313 29.4247C104.584 29.1261 104.719 28.6501 104.719 27.9967C104.719 27.3434 104.584 26.8721 104.313 26.5827C104.052 26.2841 103.716 26.1347 103.305 26.1347C102.885 26.1347 102.54 26.2841 102.269 26.5827C102.008 26.8721 101.877 27.3434 101.877 27.9967C101.877 28.6501 102.008 29.1261 102.269 29.4247C102.54 29.7141 102.885 29.8587 103.305 29.8587ZM108.689 31.5527V24.4407H111.181V31.5527H108.689ZM108.633 23.4327V21.1927H111.251V23.4327H108.633ZM112.722 31.5527V26.3727C112.722 26.0554 112.713 25.7334 112.694 25.4067C112.676 25.0801 112.648 24.7581 112.61 24.4407H115.018L115.158 25.6727H115.004C115.238 25.2247 115.569 24.8841 115.998 24.6507C116.428 24.4081 116.913 24.2867 117.454 24.2867C118.285 24.2867 118.906 24.5341 119.316 25.0287C119.736 25.5141 119.946 26.2747 119.946 27.3107V31.5527H117.454V27.4227C117.454 26.9654 117.375 26.6481 117.216 26.4707C117.058 26.2841 116.829 26.1907 116.53 26.1907C116.138 26.1907 115.821 26.3214 115.578 26.5827C115.336 26.8347 115.214 27.1707 115.214 27.5907V31.5527H112.722ZM124.931 34.6887C124.222 34.6887 123.596 34.6234 123.055 34.4927C122.523 34.3714 122.042 34.1801 121.613 33.9187L122.047 32.1547C122.299 32.3041 122.574 32.4301 122.873 32.5327C123.172 32.6354 123.48 32.7101 123.797 32.7567C124.124 32.8127 124.432 32.8407 124.721 32.8407C125.318 32.8407 125.762 32.7007 126.051 32.4207C126.34 32.1501 126.485 31.7627 126.485 31.2587V30.0127H126.625C126.476 30.4234 126.182 30.7547 125.743 31.0067C125.304 31.2494 124.819 31.3707 124.287 31.3707C123.652 31.3707 123.097 31.2307 122.621 30.9507C122.154 30.6614 121.786 30.2507 121.515 29.7187C121.254 29.1867 121.123 28.5567 121.123 27.8287C121.123 27.1007 121.254 26.4707 121.515 25.9387C121.786 25.4067 122.154 25.0007 122.621 24.7207C123.097 24.4314 123.652 24.2867 124.287 24.2867C124.838 24.2867 125.323 24.4081 125.743 24.6507C126.163 24.8934 126.448 25.2154 126.597 25.6167L126.485 25.5887L126.639 24.4407H129.033C128.996 24.7581 128.968 25.0801 128.949 25.4067C128.93 25.7334 128.921 26.0554 128.921 26.3727V30.9787C128.921 32.1734 128.58 33.0881 127.899 33.7227C127.218 34.3667 126.228 34.6887 124.931 34.6887ZM125.057 29.5227C125.486 29.5227 125.827 29.3781 126.079 29.0887C126.331 28.7994 126.457 28.3794 126.457 27.8287C126.457 27.2687 126.331 26.8487 126.079 26.5687C125.827 26.2794 125.486 26.1347 125.057 26.1347C124.618 26.1347 124.273 26.2794 124.021 26.5687C123.769 26.8487 123.643 27.2687 123.643 27.8287C123.643 28.3794 123.769 28.7994 124.021 29.0887C124.273 29.3781 124.618 29.5227 125.057 29.5227ZM134.642 31.5527V21.6827H137.232V29.4107H141.46V31.5527H134.642ZM142.595 31.5527V24.4407H145.087V31.5527H142.595ZM142.539 23.4327V21.1927H145.157V23.4327H142.539ZM149.359 31.7067C148.696 31.7067 148.094 31.6414 147.553 31.5107C147.021 31.3707 146.568 31.1841 146.195 30.9507L146.797 29.3267C147.161 29.5321 147.567 29.7001 148.015 29.8307C148.472 29.9614 148.925 30.0267 149.373 30.0267C149.727 30.0267 149.984 29.9754 150.143 29.8727C150.311 29.7607 150.395 29.6161 150.395 29.4387C150.395 29.2987 150.343 29.1867 150.241 29.1027C150.138 29.0187 149.984 28.9581 149.779 28.9207L148.267 28.6547C147.669 28.5427 147.203 28.3234 146.867 27.9967C146.54 27.6607 146.377 27.2267 146.377 26.6947C146.377 26.2094 146.507 25.7894 146.769 25.4347C147.03 25.0707 147.403 24.7907 147.889 24.5947C148.374 24.3894 148.948 24.2867 149.611 24.2867C150.152 24.2867 150.665 24.3474 151.151 24.4687C151.645 24.5901 152.075 24.7814 152.439 25.0427L151.795 26.6247C151.505 26.4287 151.165 26.2701 150.773 26.1487C150.39 26.0181 150.031 25.9527 149.695 25.9527C149.293 25.9527 149.009 26.0134 148.841 26.1347C148.673 26.2467 148.589 26.3867 148.589 26.5547C148.589 26.6854 148.635 26.7974 148.729 26.8907C148.822 26.9747 148.971 27.0354 149.177 27.0727L150.689 27.3387C151.305 27.4414 151.776 27.6561 152.103 27.9827C152.439 28.3001 152.607 28.7341 152.607 29.2847C152.607 29.7981 152.467 30.2367 152.187 30.6007C151.916 30.9554 151.538 31.2307 151.053 31.4267C150.567 31.6134 150.003 31.7067 149.359 31.7067ZM157.282 31.7067C156.274 31.7067 155.514 31.4687 155 30.9927C154.496 30.5074 154.244 29.7747 154.244 28.7947V26.2747H152.914V24.4407H154.244V22.7607L156.736 22.1727V24.4407H158.472V26.2747H156.736V28.6967C156.736 29.1074 156.83 29.3827 157.016 29.5227C157.203 29.6534 157.427 29.7187 157.688 29.7187C157.847 29.7187 157.982 29.7094 158.094 29.6907C158.216 29.6627 158.342 29.6254 158.472 29.5787V31.4967C158.267 31.5807 158.062 31.6367 157.856 31.6647C157.66 31.6927 157.469 31.7067 157.282 31.7067Z" fill="black"/>
<path d="M56.0501 24.5886H56.8172C57.9714 24.5886 58.9073 25.5243 58.907 26.6786L56.0501 24.5886ZM56.0501 24.5886C55.0588 19.0043 50.1704 14.75 44.3054 14.75C40.4375 14.75 36.9948 16.601 34.8144 19.4614C31.664 18.0085 28 18.0054 24.8429 19.4615C22.6625 16.6009 19.2198 14.75 15.3518 14.75C9.48676 14.75 4.59835 19.0043 3.60712 24.5886H2.84008C1.6858 24.5886 0.75 25.5244 0.75 26.6786C0.75 27.8329 1.6858 28.7687 2.84008 28.7687H3.60723C4.59846 34.353 9.48699 38.6073 15.3519 38.6073C21.9296 38.6073 27.2806 33.2563 27.2806 26.6786C27.2806 25.4634 27.0972 24.2901 26.7576 23.1843C28.6724 22.3566 30.9105 22.3238 32.8995 23.1842C32.56 24.29 32.3765 25.4634 32.3765 26.6786C32.3765 33.2563 37.7275 38.6073 44.3051 38.6073C50.1702 38.6073 55.0587 34.353 56.0498 28.7687H56.8169C57.9711 28.7687 58.9069 27.833 58.907 26.6787L56.0501 24.5886ZM15.3518 34.427C11.0796 34.427 7.60345 30.9508 7.60345 26.6786C7.60345 22.4064 11.0797 18.9303 15.3518 18.9303C19.624 18.9303 23.1002 22.4065 23.1002 26.6786C23.1003 30.9509 19.6241 34.427 15.3518 34.427ZM44.3055 34.427C40.0332 34.427 36.5571 30.9508 36.5571 26.6786C36.5571 22.4064 40.0333 18.9303 44.3055 18.9303C48.5777 18.9303 52.0538 22.4065 52.0538 26.6786C52.0538 30.9509 48.5776 34.427 44.3055 34.427Z" fill="black" stroke="black" stroke-width="0.5"/>
</svg>
