<svg width="355" height="355" viewBox="0 0 355 355" fill="none" xmlns="http://www.w3.org/2000/svg">
<path d="M274.436 281L334.769 244.871C336.318 244.159 336.43 242.033 334.965 241.167L274.436 197M74 241.167L329.876 243.2" stroke="#EC5658" stroke-width="15" stroke-linecap="round"></path>
<path d="M62.9773 207.917C53.1035 207.917 43.8687 206.697 35.2727 204.258C26.6768 201.818 19.3586 198.449 13.3182 194.152L21.3333 172.894C25.2828 175.566 29.4646 177.831 33.8788 179.689C38.2929 181.548 42.9394 183 47.8182 184.045C52.697 184.975 57.8081 185.439 63.1515 185.439C71.5152 185.439 77.4394 184.162 80.9242 181.606C84.5253 179.051 86.3258 175.798 86.3258 171.848C86.3258 168.247 85.1061 165.518 82.6667 163.659C80.3434 161.684 76.0455 160 69.7727 158.606L49.2121 154.424C37.9444 152.101 29.5227 148.152 23.947 142.576C18.3712 137 15.5833 129.566 15.5833 120.273C15.5833 112.374 17.6742 105.52 21.8561 99.7121C26.0379 93.904 31.904 89.3737 39.4545 86.1212C47.1212 82.8687 56.0657 81.2424 66.2879 81.2424C75 81.2424 83.1313 82.4621 90.6818 84.9015C98.2323 87.3409 104.447 90.8257 109.326 95.356L101.311 115.22C96.548 111.386 91.2046 108.54 85.2803 106.682C79.4722 104.707 72.9672 103.72 65.7652 103.72C58.2147 103.72 52.4066 105.056 48.3409 107.727C44.3914 110.399 42.4167 114.058 42.4167 118.705C42.4167 122.189 43.6364 125.035 46.0758 127.242C48.5152 129.333 52.8131 131.018 58.9697 132.295L79.1818 136.303C90.6818 138.626 99.2197 142.518 104.795 147.977C110.371 153.437 113.159 160.697 113.159 169.758C113.159 177.424 111.068 184.104 106.886 189.795C102.821 195.487 97.0126 199.96 89.4621 203.212C82.0278 206.348 73.1995 207.917 62.9773 207.917ZM133.232 206V83.1591H189.861C203.336 83.1591 213.732 86.005 221.051 91.697C228.369 97.3889 232.028 105.172 232.028 115.045C232.028 122.364 229.821 128.578 225.407 133.689C221.109 138.8 215.184 142.227 207.634 143.97V141.182C216.462 142.692 223.258 146.061 228.02 151.288C232.899 156.399 235.338 163.078 235.338 171.326C235.338 182.245 231.447 190.783 223.664 196.939C215.998 202.98 205.369 206 191.778 206H133.232ZM159.194 185.788H188.467C195.205 185.788 200.374 184.51 203.975 181.955C207.576 179.399 209.376 175.333 209.376 169.758C209.376 164.066 207.576 160 203.975 157.561C200.374 155.005 195.205 153.727 188.467 153.727H159.194V185.788ZM159.194 133.689H184.982C192.068 133.689 197.296 132.412 200.664 129.856C204.033 127.3 205.717 123.467 205.717 118.356C205.717 113.361 204.033 109.586 200.664 107.03C197.296 104.475 192.068 103.197 184.982 103.197H159.194V133.689Z" fill="black"></path>
</svg>
