<svg width="160" height="53" viewBox="0 0 160 53" fill="none" xmlns="http://www.w3.org/2000/svg">
<path d="M74.55 31.5527V23.7687H71.554V21.6827H80.136V23.7687H77.14V31.5527H74.55ZM82.7763 31.7067C82.1603 31.7067 81.619 31.5621 81.1523 31.2727C80.6856 30.9741 80.317 30.5447 80.0463 29.9847C79.785 29.4247 79.6543 28.7621 79.6543 27.9967C79.6543 27.2221 79.785 26.5594 80.0463 26.0087C80.317 25.4487 80.6856 25.0241 81.1523 24.7347C81.619 24.4361 82.1603 24.2867 82.7763 24.2867C83.327 24.2867 83.8216 24.4174 84.2603 24.6787C84.7083 24.9401 85.0023 25.2807 85.1423 25.7007H85.0023L85.1563 24.4407H87.5503C87.5223 24.7581 87.4943 25.0801 87.4663 25.4067C87.4476 25.7334 87.4383 26.0554 87.4383 26.3727V31.5527H84.9743L84.9463 30.3487H85.1143C84.9743 30.7594 84.6803 31.0907 84.2323 31.3427C83.7936 31.5854 83.3083 31.7067 82.7763 31.7067ZM83.5743 29.8587C83.9943 29.8587 84.335 29.7141 84.5963 29.4247C84.8576 29.1261 84.9883 28.6501 84.9883 27.9967C84.9883 27.3434 84.8576 26.8721 84.5963 26.5827C84.335 26.2841 83.9943 26.1347 83.5743 26.1347C83.1543 26.1347 82.8136 26.2841 82.5523 26.5827C82.291 26.8721 82.1603 27.3434 82.1603 27.9967C82.1603 28.6501 82.2863 29.1261 82.5383 29.4247C82.7996 29.7141 83.145 29.8587 83.5743 29.8587ZM91.7161 31.7067C91.0534 31.7067 90.4514 31.6414 89.9101 31.5107C89.3781 31.3707 88.9254 31.1841 88.5521 30.9507L89.1541 29.3267C89.5181 29.5321 89.9241 29.7001 90.3721 29.8307C90.8294 29.9614 91.2821 30.0267 91.7301 30.0267C92.0847 30.0267 92.3414 29.9754 92.5001 29.8727C92.6681 29.7607 92.7521 29.6161 92.7521 29.4387C92.7521 29.2987 92.7007 29.1867 92.5981 29.1027C92.4954 29.0187 92.3414 28.9581 92.1361 28.9207L90.6241 28.6547C90.0267 28.5427 89.5601 28.3234 89.2241 27.9967C88.8974 27.6607 88.7341 27.2267 88.7341 26.6947C88.7341 26.2094 88.8647 25.7894 89.1261 25.4347C89.3874 25.0707 89.7607 24.7907 90.2461 24.5947C90.7314 24.3894 91.3054 24.2867 91.9681 24.2867C92.5094 24.2867 93.0227 24.3474 93.5081 24.4687C94.0027 24.5901 94.4321 24.7814 94.7961 25.0427L94.1521 26.6247C93.8627 26.4287 93.5221 26.2701 93.1301 26.1487C92.7474 26.0181 92.3881 25.9527 92.0521 25.9527C91.6507 25.9527 91.3661 26.0134 91.1981 26.1347C91.0301 26.2467 90.9461 26.3867 90.9461 26.5547C90.9461 26.6854 90.9927 26.7974 91.0861 26.8907C91.1794 26.9747 91.3287 27.0354 91.5341 27.0727L93.0461 27.3387C93.6621 27.4414 94.1334 27.6561 94.4601 27.9827C94.7961 28.3001 94.9641 28.7341 94.9641 29.2847C94.9641 29.7981 94.8241 30.2367 94.5441 30.6007C94.2734 30.9554 93.8954 31.2307 93.4101 31.4267C92.9247 31.6134 92.3601 31.7067 91.7161 31.7067ZM96.0681 31.5527V21.2487H98.5601V27.3107H98.5881L100.968 24.4407H103.908L100.688 28.2487V27.3947L104.034 31.5527H101.024L98.5881 28.5707H98.5601V31.5527H96.0681ZM107.056 31.7067C106.393 31.7067 105.791 31.6414 105.25 31.5107C104.718 31.3707 104.265 31.1841 103.892 30.9507L104.494 29.3267C104.858 29.5321 105.264 29.7001 105.712 29.8307C106.169 29.9614 106.622 30.0267 107.07 30.0267C107.425 30.0267 107.681 29.9754 107.84 29.8727C108.008 29.7607 108.092 29.6161 108.092 29.4387C108.092 29.2987 108.041 29.1867 107.938 29.1027C107.835 29.0187 107.681 28.9581 107.476 28.9207L105.964 28.6547C105.367 28.5427 104.9 28.3234 104.564 27.9967C104.237 27.6607 104.074 27.2267 104.074 26.6947C104.074 26.2094 104.205 25.7894 104.466 25.4347C104.727 25.0707 105.101 24.7907 105.586 24.5947C106.071 24.3894 106.645 24.2867 107.308 24.2867C107.849 24.2867 108.363 24.3474 108.848 24.4687C109.343 24.5901 109.772 24.7814 110.136 25.0427L109.492 26.6247C109.203 26.4287 108.862 26.2701 108.47 26.1487C108.087 26.0181 107.728 25.9527 107.392 25.9527C106.991 25.9527 106.706 26.0134 106.538 26.1347C106.37 26.2467 106.286 26.3867 106.286 26.5547C106.286 26.6854 106.333 26.7974 106.426 26.8907C106.519 26.9747 106.669 27.0354 106.874 27.0727L108.386 27.3387C109.002 27.4414 109.473 27.6561 109.8 27.9827C110.136 28.3001 110.304 28.7341 110.304 29.2847C110.304 29.7981 110.164 30.2367 109.884 30.6007C109.613 30.9554 109.235 31.2307 108.75 31.4267C108.265 31.6134 107.7 31.7067 107.056 31.7067Z" fill="black"></path>
<path d="M46.3432 7.40597L10.9673 7.21991C8.43769 7.2066 6.37849 9.24737 6.36529 11.756L6.21974 39.4308C6.20645 41.9577 8.26254 44.0018 10.7738 44.015L46.164 44.2011C47.3957 44.2076 48.5444 43.7282 49.4115 42.8743C50.2815 42.0175 50.7612 40.8744 50.7517 39.6593L50.8973 11.9902C50.9105 9.47958 48.8565 7.41916 46.3432 7.40594L46.3432 7.40597ZM47.7647 39.6772C47.7625 40.0917 47.6014 40.4875 47.3031 40.793C46.9957 41.0935 46.5992 41.2498 46.1808 41.2476L10.7907 41.0614C9.91233 41.0568 9.20443 40.3394 9.20898 39.4744L9.35468 11.7723C9.35923 10.9074 10.0746 10.1974 10.953 10.202L46.3301 10.3881C47.2084 10.3927 47.9163 11.1101 47.9117 11.9751L47.7647 39.6772Z" fill="black" stroke="black" stroke-width="1.6"></path>
<path d="M37.1854 17.0459L23.4571 27.1847L20.5109 21.2424L20.1536 20.5218L19.4349 20.883L18.2009 21.5032L17.4909 21.86L17.8429 22.5724L21.9352 30.8552L22.3588 31.7124L23.1278 31.1443L38.9602 19.4482L39.6037 18.9728L39.1282 18.3293L38.304 17.214L37.8287 16.5708L37.1854 17.0459Z" fill="black" stroke="black" stroke-width="1.6"></path>
</svg>
