<svg width="160" height="53" viewBox="0 0 160 53" fill="none" xmlns="http://www.w3.org/2000/svg">
<path d="M74.55 31.5527V23.7687H71.554V21.6827H80.136V23.7687H77.14V31.5527H74.55ZM81.0837 31.5527V24.4407H83.5757V31.5527H81.0837ZM81.0277 23.4327V21.1927H83.6457V23.4327H81.0277ZM85.1169 31.5527V26.3727C85.1169 26.0554 85.1076 25.7334 85.0889 25.4067C85.0703 25.0801 85.0423 24.7581 85.0049 24.4407H87.4129L87.5529 25.6727H87.3989C87.6043 25.2434 87.9076 24.9074 88.3089 24.6647C88.7103 24.4127 89.1816 24.2867 89.7229 24.2867C90.2456 24.2867 90.6889 24.4127 91.0529 24.6647C91.4263 24.9074 91.6969 25.2947 91.8649 25.8267H91.6269C91.8603 25.3414 92.1963 24.9634 92.6349 24.6927C93.0829 24.4221 93.5823 24.2867 94.1329 24.2867C94.9449 24.2867 95.5516 24.5341 95.9529 25.0287C96.3543 25.5141 96.5549 26.2747 96.5549 27.3107V31.5527H94.0489V27.3947C94.0489 26.9561 93.9836 26.6481 93.8529 26.4707C93.7223 26.2841 93.5123 26.1907 93.2229 26.1907C92.8589 26.1907 92.5743 26.3214 92.3689 26.5827C92.1729 26.8441 92.0749 27.2034 92.0749 27.6607V31.5527H89.5829V27.3947C89.5829 26.9561 89.5129 26.6481 89.3729 26.4707C89.2423 26.2841 89.0369 26.1907 88.7569 26.1907C88.3929 26.1907 88.1083 26.3214 87.9029 26.5827C87.7069 26.8441 87.6089 27.2034 87.6089 27.6607V31.5527H85.1169ZM101.803 31.7067C100.515 31.7067 99.5112 31.3754 98.7925 30.7127C98.0832 30.0501 97.7285 29.1401 97.7285 27.9827C97.7285 27.2641 97.8779 26.6247 98.1765 26.0647C98.4752 25.5047 98.8952 25.0707 99.4365 24.7627C99.9779 24.4454 100.613 24.2867 101.341 24.2867C102.059 24.2867 102.657 24.4454 103.133 24.7627C103.618 25.0707 103.982 25.5001 104.225 26.0507C104.467 26.5921 104.589 27.2221 104.589 27.9407V28.4727H99.8145V27.2967H102.755L102.517 27.4927C102.517 26.9607 102.414 26.5687 102.209 26.3167C102.013 26.0554 101.733 25.9247 101.369 25.9247C100.949 25.9247 100.627 26.0834 100.403 26.4007C100.188 26.7087 100.081 27.1754 100.081 27.8007V28.0527C100.081 28.6781 100.235 29.1354 100.543 29.4247C100.851 29.7141 101.294 29.8587 101.873 29.8587C102.246 29.8587 102.596 29.8167 102.923 29.7327C103.259 29.6487 103.576 29.5134 103.875 29.3267L104.519 30.9507C104.164 31.1934 103.753 31.3801 103.287 31.5107C102.82 31.6414 102.325 31.7067 101.803 31.7067ZM112.216 31.5527V23.7687H109.22V21.6827H117.802V23.7687H114.806V31.5527H112.216ZM121.198 31.7067C120.405 31.7067 119.719 31.5574 119.14 31.2587C118.562 30.9601 118.114 30.5354 117.796 29.9847C117.479 29.4247 117.32 28.7621 117.32 27.9967C117.32 27.2221 117.479 26.5594 117.796 26.0087C118.114 25.4581 118.562 25.0334 119.14 24.7347C119.719 24.4361 120.405 24.2867 121.198 24.2867C121.982 24.2867 122.664 24.4361 123.242 24.7347C123.821 25.0334 124.269 25.4627 124.586 26.0227C124.904 26.5734 125.062 27.2314 125.062 27.9967C125.062 28.7527 124.904 29.4107 124.586 29.9707C124.269 30.5307 123.821 30.9601 123.242 31.2587C122.664 31.5574 121.982 31.7067 121.198 31.7067ZM121.198 29.8587C121.609 29.8587 121.936 29.7141 122.178 29.4247C122.421 29.1261 122.542 28.6501 122.542 27.9967C122.542 27.3434 122.421 26.8721 122.178 26.5827C121.936 26.2841 121.609 26.1347 121.198 26.1347C120.778 26.1347 120.447 26.2841 120.204 26.5827C119.962 26.8721 119.84 27.3434 119.84 27.9967C119.84 28.6501 119.962 29.1261 120.204 29.4247C120.447 29.7141 120.778 29.8587 121.198 29.8587ZM129.839 31.7067C129.046 31.7067 128.36 31.5574 127.781 31.2587C127.202 30.9601 126.754 30.5354 126.437 29.9847C126.12 29.4247 125.961 28.7621 125.961 27.9967C125.961 27.2221 126.12 26.5594 126.437 26.0087C126.754 25.4581 127.202 25.0334 127.781 24.7347C128.36 24.4361 129.046 24.2867 129.839 24.2867C130.623 24.2867 131.304 24.4361 131.883 24.7347C132.462 25.0334 132.91 25.4627 133.227 26.0227C133.544 26.5734 133.703 27.2314 133.703 27.9967C133.703 28.7527 133.544 29.4107 133.227 29.9707C132.91 30.5307 132.462 30.9601 131.883 31.2587C131.304 31.5574 130.623 31.7067 129.839 31.7067ZM129.839 29.8587C130.25 29.8587 130.576 29.7141 130.819 29.4247C131.062 29.1261 131.183 28.6501 131.183 27.9967C131.183 27.3434 131.062 26.8721 130.819 26.5827C130.576 26.2841 130.25 26.1347 129.839 26.1347C129.419 26.1347 129.088 26.2841 128.845 26.5827C128.602 26.8721 128.481 27.3434 128.481 27.9967C128.481 28.6501 128.602 29.1261 128.845 29.4247C129.088 29.7141 129.419 29.8587 129.839 29.8587ZM134.924 31.5527V21.2487H137.416V31.5527H134.924ZM141.687 31.7067C141.024 31.7067 140.422 31.6414 139.881 31.5107C139.349 31.3707 138.896 31.1841 138.523 30.9507L139.125 29.3267C139.489 29.5321 139.895 29.7001 140.343 29.8307C140.8 29.9614 141.253 30.0267 141.701 30.0267C142.055 30.0267 142.312 29.9754 142.471 29.8727C142.639 29.7607 142.723 29.6161 142.723 29.4387C142.723 29.2987 142.671 29.1867 142.569 29.1027C142.466 29.0187 142.312 28.9581 142.107 28.9207L140.595 28.6547C139.997 28.5427 139.531 28.3234 139.195 27.9967C138.868 27.6607 138.705 27.2267 138.705 26.6947C138.705 26.2094 138.835 25.7894 139.097 25.4347C139.358 25.0707 139.731 24.7907 140.217 24.5947C140.702 24.3894 141.276 24.2867 141.939 24.2867C142.48 24.2867 142.993 24.3474 143.479 24.4687C143.973 24.5901 144.403 24.7814 144.767 25.0427L144.123 26.6247C143.833 26.4287 143.493 26.2701 143.101 26.1487C142.718 26.0181 142.359 25.9527 142.023 25.9527C141.621 25.9527 141.337 26.0134 141.169 26.1347C141.001 26.2467 140.917 26.3867 140.917 26.5547C140.917 26.6854 140.963 26.7974 141.057 26.8907C141.15 26.9747 141.299 27.0354 141.505 27.0727L143.017 27.3387C143.633 27.4414 144.104 27.6561 144.431 27.9827C144.767 28.3001 144.935 28.7341 144.935 29.2847C144.935 29.7981 144.795 30.2367 144.515 30.6007C144.244 30.9554 143.866 31.2307 143.381 31.4267C142.895 31.6134 142.331 31.7067 141.687 31.7067Z" fill="black"></path>
<path d="M31.6282 5.12128L31.5285 5.22024C36.4536 5.68957 41.0874 7.85706 44.6153 11.3848L44.6153 11.3848C48.6241 15.3936 50.8763 20.8312 50.8763 26.5002C50.8763 32.1692 48.6241 37.6066 44.6153 41.6156L44.0017 41.0019L44.6153 41.6156C40.6065 45.6243 35.169 47.8766 29.5 47.8766C23.8309 47.8766 18.3935 45.6243 14.3846 41.6156L14.9268 41.0734L14.3846 41.6156C10.3758 37.6068 8.12357 32.1692 8.12357 26.5002L8.12358 26.4992C8.12987 20.832 10.3839 15.3984 14.3913 11.3913C18.3986 7.38429 23.8321 5.13003 29.4991 5.12367L31.6282 5.12128ZM42.7317 39.732L42.7317 39.7319C46.2411 36.2229 48.2127 31.4628 48.2127 26.5002C48.2127 21.5376 46.2411 16.7779 42.7317 13.2685L42.7317 13.2684C39.2226 9.75905 34.4625 7.78745 29.5 7.78745C24.5374 7.78745 19.7776 9.75903 16.2682 13.2685L16.2682 13.2685C12.7588 16.7775 10.7872 21.5376 10.7872 26.5002C10.7872 31.4628 12.7588 36.2225 16.2682 39.732L16.2682 39.732C19.7773 43.2414 24.5374 45.213 29.5 45.213C34.4628 45.213 39.2223 43.2414 42.7317 39.732Z" fill="black" stroke="black" stroke-width="1.75266"></path>
<path d="M29.4648 12.8335L29.4649 27.9018H39.9775H40.8539V28.7781V29.6892V30.5655H39.9775H27.6775H26.8011V29.6892V12.8335V11.9572H27.6775H28.5885H29.4648L29.4648 12.8335Z" fill="black" stroke="black" stroke-width="1.75266"></path>
</svg>
