<svg width="160" height="53" viewBox="0 0 160 53" fill="none" xmlns="http://www.w3.org/2000/svg">
<path d="M75.55 31.5527V23.7687H72.554V21.6827H81.136V23.7687H78.14V31.5527H75.55ZM83.7763 31.7067C83.1603 31.7067 82.619 31.5621 82.1523 31.2727C81.6856 30.9741 81.317 30.5447 81.0463 29.9847C80.785 29.4247 80.6543 28.7621 80.6543 27.9967C80.6543 27.2221 80.785 26.5594 81.0463 26.0087C81.317 25.4487 81.6856 25.0241 82.1523 24.7347C82.619 24.4361 83.1603 24.2867 83.7763 24.2867C84.327 24.2867 84.8216 24.4174 85.2603 24.6787C85.7083 24.9401 86.0023 25.2807 86.1423 25.7007H86.0023L86.1563 24.4407H88.5503C88.5223 24.7581 88.4943 25.0801 88.4663 25.4067C88.4476 25.7334 88.4383 26.0554 88.4383 26.3727V31.5527H85.9743L85.9463 30.3487H86.1143C85.9743 30.7594 85.6803 31.0907 85.2323 31.3427C84.7936 31.5854 84.3083 31.7067 83.7763 31.7067ZM84.5743 29.8587C84.9943 29.8587 85.335 29.7141 85.5963 29.4247C85.8576 29.1261 85.9883 28.6501 85.9883 27.9967C85.9883 27.3434 85.8576 26.8721 85.5963 26.5827C85.335 26.2841 84.9943 26.1347 84.5743 26.1347C84.1543 26.1347 83.8136 26.2841 83.5523 26.5827C83.291 26.8721 83.1603 27.3434 83.1603 27.9967C83.1603 28.6501 83.2863 29.1261 83.5383 29.4247C83.7996 29.7141 84.145 29.8587 84.5743 29.8587ZM92.7161 31.7067C92.0534 31.7067 91.4514 31.6414 90.9101 31.5107C90.3781 31.3707 89.9254 31.1841 89.5521 30.9507L90.1541 29.3267C90.5181 29.5321 90.9241 29.7001 91.3721 29.8307C91.8294 29.9614 92.2821 30.0267 92.7301 30.0267C93.0847 30.0267 93.3414 29.9754 93.5001 29.8727C93.6681 29.7607 93.7521 29.6161 93.7521 29.4387C93.7521 29.2987 93.7007 29.1867 93.5981 29.1027C93.4954 29.0187 93.3414 28.9581 93.1361 28.9207L91.6241 28.6547C91.0267 28.5427 90.5601 28.3234 90.2241 27.9967C89.8974 27.6607 89.7341 27.2267 89.7341 26.6947C89.7341 26.2094 89.8647 25.7894 90.1261 25.4347C90.3874 25.0707 90.7607 24.7907 91.2461 24.5947C91.7314 24.3894 92.3054 24.2867 92.9681 24.2867C93.5094 24.2867 94.0227 24.3474 94.5081 24.4687C95.0027 24.5901 95.4321 24.7814 95.7961 25.0427L95.1521 26.6247C94.8627 26.4287 94.5221 26.2701 94.1301 26.1487C93.7474 26.0181 93.3881 25.9527 93.0521 25.9527C92.6507 25.9527 92.3661 26.0134 92.1981 26.1347C92.0301 26.2467 91.9461 26.3867 91.9461 26.5547C91.9461 26.6854 91.9927 26.7974 92.0861 26.8907C92.1794 26.9747 92.3287 27.0354 92.5341 27.0727L94.0461 27.3387C94.6621 27.4414 95.1334 27.6561 95.4601 27.9827C95.7961 28.3001 95.9641 28.7341 95.9641 29.2847C95.9641 29.7981 95.8241 30.2367 95.5441 30.6007C95.2734 30.9554 94.8954 31.2307 94.4101 31.4267C93.9247 31.6134 93.3601 31.7067 92.7161 31.7067ZM97.0681 31.5527V21.2487H99.5601V27.3107H99.5881L101.968 24.4407H104.908L101.688 28.2487V27.3947L105.034 31.5527H102.024L99.5881 28.5707H99.5601V31.5527H97.0681ZM108.056 31.7067C107.393 31.7067 106.791 31.6414 106.25 31.5107C105.718 31.3707 105.265 31.1841 104.892 30.9507L105.494 29.3267C105.858 29.5321 106.264 29.7001 106.712 29.8307C107.169 29.9614 107.622 30.0267 108.07 30.0267C108.425 30.0267 108.681 29.9754 108.84 29.8727C109.008 29.7607 109.092 29.6161 109.092 29.4387C109.092 29.2987 109.041 29.1867 108.938 29.1027C108.835 29.0187 108.681 28.9581 108.476 28.9207L106.964 28.6547C106.367 28.5427 105.9 28.3234 105.564 27.9967C105.237 27.6607 105.074 27.2267 105.074 26.6947C105.074 26.2094 105.205 25.7894 105.466 25.4347C105.727 25.0707 106.101 24.7907 106.586 24.5947C107.071 24.3894 107.645 24.2867 108.308 24.2867C108.849 24.2867 109.363 24.3474 109.848 24.4687C110.343 24.5901 110.772 24.7814 111.136 25.0427L110.492 26.6247C110.203 26.4287 109.862 26.2701 109.47 26.1487C109.087 26.0181 108.728 25.9527 108.392 25.9527C107.991 25.9527 107.706 26.0134 107.538 26.1347C107.37 26.2467 107.286 26.3867 107.286 26.5547C107.286 26.6854 107.333 26.7974 107.426 26.8907C107.519 26.9747 107.669 27.0354 107.874 27.0727L109.386 27.3387C110.002 27.4414 110.473 27.6561 110.8 27.9827C111.136 28.3001 111.304 28.7341 111.304 29.2847C111.304 29.7981 111.164 30.2367 110.884 30.6007C110.613 30.9554 110.235 31.2307 109.75 31.4267C109.265 31.6134 108.7 31.7067 108.056 31.7067Z" fill="black"></path>
<path d="M47.3432 7.40597L11.9673 7.21991C9.43769 7.2066 7.37849 9.24737 7.36529 11.756L7.21974 39.4308C7.20645 41.9577 9.26254 44.0018 11.7738 44.015L47.164 44.2011C48.3957 44.2076 49.5444 43.7282 50.4115 42.8743C51.2815 42.0175 51.7612 40.8744 51.7517 39.6593L51.8973 11.9902C51.9105 9.47958 49.8565 7.41916 47.3432 7.40594L47.3432 7.40597ZM48.7647 39.6772C48.7625 40.0916 48.6014 40.4874 48.3032 40.7929C47.9957 41.0934 47.5992 41.2498 47.1808 41.2476L11.7907 41.0614C10.9123 41.0568 10.2044 40.3394 10.209 39.4744L10.3547 11.7723C10.3592 10.9074 11.0746 10.1974 11.953 10.202L47.3301 10.3881C48.2084 10.3927 48.9163 11.1101 48.9117 11.9751L48.7647 39.6772Z" fill="black" stroke="black" stroke-width="1.6"></path>
<path d="M38.1854 17.0459L24.4571 27.1847L21.5109 21.2424L21.1536 20.5218L20.4349 20.883L19.2009 21.5032L18.4909 21.86L18.8429 22.5724L22.9352 30.8552L23.3588 31.7124L24.1278 31.1443L39.9602 19.4482L40.6037 18.9728L40.1282 18.3293L39.304 17.214L38.8287 16.5708L38.1854 17.0459Z" fill="black" stroke="black" stroke-width="1.6"></path>
</svg>
