<svg width="160" height="53" viewBox="0 0 160 53" fill="none" xmlns="http://www.w3.org/2000/svg">
<path d="M72.338 31.5527V21.6827H74.578L77.812 28.9207H77.35L80.57 21.6827H82.824V31.5527H80.486V25.5047H81.088L78.288 31.5527H76.832L74.018 25.5047H74.662V31.5527H72.338ZM87.147 31.7067C86.2417 31.7067 85.5697 31.4594 85.131 30.9647C84.7017 30.4607 84.487 29.7001 84.487 28.6827V24.4407H86.979V28.6967C86.979 29.0701 87.0537 29.3501 87.203 29.5367C87.3617 29.7141 87.5997 29.8027 87.917 29.8027C88.2717 29.8027 88.561 29.6767 88.785 29.4247C89.0184 29.1634 89.135 28.8227 89.135 28.4027V24.4407H91.627V31.5527H89.205V30.2787H89.415C89.191 30.7361 88.8877 31.0907 88.505 31.3427C88.1224 31.5854 87.6697 31.7067 87.147 31.7067ZM95.9133 31.7067C95.2507 31.7067 94.6487 31.6414 94.1073 31.5107C93.5753 31.3707 93.1227 31.1841 92.7493 30.9507L93.3513 29.3267C93.7153 29.5321 94.1213 29.7001 94.5693 29.8307C95.0267 29.9614 95.4793 30.0267 95.9273 30.0267C96.282 30.0267 96.5387 29.9754 96.6973 29.8727C96.8653 29.7607 96.9493 29.6161 96.9493 29.4387C96.9493 29.2987 96.898 29.1867 96.7953 29.1027C96.6927 29.0187 96.5387 28.9581 96.3333 28.9207L94.8213 28.6547C94.224 28.5427 93.7573 28.3234 93.4213 27.9967C93.0947 27.6607 92.9313 27.2267 92.9313 26.6947C92.9313 26.2094 93.062 25.7894 93.3233 25.4347C93.5847 25.0707 93.958 24.7907 94.4433 24.5947C94.9287 24.3894 95.5027 24.2867 96.1653 24.2867C96.7067 24.2867 97.22 24.3474 97.7053 24.4687C98.2 24.5901 98.6293 24.7814 98.9933 25.0427L98.3493 26.6247C98.06 26.4287 97.7193 26.2701 97.3273 26.1487C96.9447 26.0181 96.5853 25.9527 96.2493 25.9527C95.848 25.9527 95.5633 26.0134 95.3953 26.1347C95.2273 26.2467 95.1433 26.3867 95.1433 26.5547C95.1433 26.6854 95.19 26.7974 95.2833 26.8907C95.3767 26.9747 95.526 27.0354 95.7313 27.0727L97.2433 27.3387C97.8593 27.4414 98.3307 27.6561 98.6573 27.9827C98.9933 28.3001 99.1613 28.7341 99.1613 29.2847C99.1613 29.7981 99.0213 30.2367 98.7413 30.6007C98.4707 30.9554 98.0927 31.2307 97.6073 31.4267C97.122 31.6134 96.5573 31.7067 95.9133 31.7067ZM100.265 31.5527V24.4407H102.757V31.5527H100.265ZM100.209 23.4327V21.1927H102.827V23.4327H100.209ZM107.897 31.7067C107.113 31.7067 106.427 31.5574 105.839 31.2587C105.251 30.9601 104.793 30.5354 104.467 29.9847C104.14 29.4247 103.977 28.7574 103.977 27.9827C103.977 27.2081 104.14 26.5454 104.467 25.9947C104.793 25.4441 105.251 25.0241 105.839 24.7347C106.427 24.4361 107.113 24.2867 107.897 24.2867C108.382 24.2867 108.858 24.3521 109.325 24.4827C109.791 24.6134 110.169 24.8001 110.459 25.0427L109.759 26.7367C109.535 26.5501 109.278 26.4101 108.989 26.3167C108.709 26.2141 108.433 26.1627 108.163 26.1627C107.649 26.1627 107.248 26.3167 106.959 26.6247C106.679 26.9327 106.539 27.3854 106.539 27.9827C106.539 28.5801 106.679 29.0374 106.959 29.3547C107.248 29.6627 107.649 29.8167 108.163 29.8167C108.424 29.8167 108.699 29.7701 108.989 29.6767C109.278 29.5741 109.535 29.4341 109.759 29.2567L110.459 30.9507C110.16 31.1841 109.777 31.3707 109.311 31.5107C108.853 31.6414 108.382 31.7067 107.897 31.7067ZM115.677 31.5527V21.6827H120.521C121.66 21.6827 122.518 21.9627 123.097 22.5227C123.676 23.0734 123.965 23.8247 123.965 24.7767C123.965 25.7194 123.676 26.4707 123.097 27.0307C122.518 27.5907 121.66 27.8707 120.521 27.8707H118.267V31.5527H115.677ZM118.267 25.8827H120.185C120.624 25.8827 120.95 25.7894 121.165 25.6027C121.38 25.4067 121.487 25.1314 121.487 24.7767C121.487 24.4221 121.38 24.1467 121.165 23.9507C120.95 23.7547 120.624 23.6567 120.185 23.6567H118.267V25.8827ZM125.107 31.5527V21.2487H127.599V31.5527H125.107ZM131.94 31.7067C131.324 31.7067 130.783 31.5621 130.316 31.2727C129.85 30.9741 129.481 30.5447 129.21 29.9847C128.949 29.4247 128.818 28.7621 128.818 27.9967C128.818 27.2221 128.949 26.5594 129.21 26.0087C129.481 25.4487 129.85 25.0241 130.316 24.7347C130.783 24.4361 131.324 24.2867 131.94 24.2867C132.491 24.2867 132.986 24.4174 133.424 24.6787C133.872 24.9401 134.166 25.2807 134.306 25.7007H134.166L134.32 24.4407H136.714C136.686 24.7581 136.658 25.0801 136.63 25.4067C136.612 25.7334 136.602 26.0554 136.602 26.3727V31.5527H134.138L134.11 30.3487H134.278C134.138 30.7594 133.844 31.0907 133.396 31.3427C132.958 31.5854 132.472 31.7067 131.94 31.7067ZM132.738 29.8587C133.158 29.8587 133.499 29.7141 133.76 29.4247C134.022 29.1261 134.152 28.6501 134.152 27.9967C134.152 27.3434 134.022 26.8721 133.76 26.5827C133.499 26.2841 133.158 26.1347 132.738 26.1347C132.318 26.1347 131.978 26.2841 131.716 26.5827C131.455 26.8721 131.324 27.3434 131.324 27.9967C131.324 28.6501 131.45 29.1261 131.702 29.4247C131.964 29.7141 132.309 29.8587 132.738 29.8587ZM138.11 34.7307L137.522 32.7987C137.97 32.7147 138.343 32.6214 138.642 32.5187C138.95 32.4254 139.202 32.2947 139.398 32.1267C139.594 31.9587 139.748 31.7394 139.86 31.4687L140.21 30.6567L140.154 31.5947L137.046 24.4407H139.678L141.498 29.1587H141.036L142.912 24.4407H145.376L142.184 31.7067C141.932 32.2761 141.661 32.7427 141.372 33.1067C141.092 33.4707 140.784 33.7601 140.448 33.9747C140.121 34.1894 139.762 34.3481 139.37 34.4507C138.987 34.5627 138.567 34.6561 138.11 34.7307ZM149.463 31.7067C148.175 31.7067 147.171 31.3754 146.453 30.7127C145.743 30.0501 145.389 29.1401 145.389 27.9827C145.389 27.2641 145.538 26.6247 145.837 26.0647C146.135 25.5047 146.555 25.0707 147.097 24.7627C147.638 24.4454 148.273 24.2867 149.001 24.2867C149.719 24.2867 150.317 24.4454 150.793 24.7627C151.278 25.0707 151.642 25.5001 151.885 26.0507C152.127 26.5921 152.249 27.2221 152.249 27.9407V28.4727H147.475V27.2967H150.415L150.177 27.4927C150.177 26.9607 150.074 26.5687 149.869 26.3167C149.673 26.0554 149.393 25.9247 149.029 25.9247C148.609 25.9247 148.287 26.0834 148.063 26.4007C147.848 26.7087 147.741 27.1754 147.741 27.8007V28.0527C147.741 28.6781 147.895 29.1354 148.203 29.4247C148.511 29.7141 148.954 29.8587 149.533 29.8587C149.906 29.8587 150.256 29.8167 150.583 29.7327C150.919 29.6487 151.236 29.5134 151.535 29.3267L152.179 30.9507C151.824 31.1934 151.413 31.3801 150.947 31.5107C150.48 31.6414 149.985 31.7067 149.463 31.7067ZM153.435 31.5527V26.3867C153.435 26.0601 153.426 25.7334 153.407 25.4067C153.389 25.0801 153.361 24.7581 153.323 24.4407H155.731L155.997 26.6247H155.619C155.713 26.0927 155.862 25.6541 156.067 25.3087C156.273 24.9634 156.529 24.7067 156.837 24.5387C157.145 24.3707 157.509 24.2867 157.929 24.2867C158.125 24.2867 158.27 24.2961 158.363 24.3147C158.466 24.3241 158.573 24.3521 158.685 24.3987V26.5827C158.452 26.4801 158.265 26.4147 158.125 26.3867C157.985 26.3587 157.803 26.3447 157.579 26.3447C157.197 26.3447 156.884 26.4147 156.641 26.5547C156.399 26.6854 156.221 26.8907 156.109 27.1707C156.007 27.4507 155.955 27.8101 155.955 28.2487V31.5527H153.435Z" fill="black"></path>
<path d="M19.9552 32.286C18.6909 31.4418 17.1463 30.9306 15.5252 30.9306C11.0971 30.9306 7.5 34.5277 7.5 38.9559C7.5 43.384 11.0971 46.9811 15.5252 46.9811H15.9522L15.9541 46.9694C20.1833 46.7461 23.5506 43.2397 23.5506 38.9554V13.5761L45.9051 9.35338V28.1337C44.6406 27.2896 43.0959 26.7784 41.4748 26.7784C37.0466 26.7784 33.4495 30.3755 33.4495 34.8036C33.4495 39.2317 37.0466 42.8292 41.4748 42.8292C45.9029 42.8292 49.5 39.2321 49.5 34.804V7.97225C49.5 6.59129 48.5334 5.5 47.1834 5.5H46.9238H46.8766L46.8303 5.50882L22.054 10.2257C20.766 10.3126 19.9552 11.4122 19.9552 12.6951V32.286ZM41.4748 39.2341C39.0521 39.2341 37.0445 37.2265 37.0445 34.8038C37.0445 32.381 39.0521 30.3731 41.4748 30.3731C43.8974 30.3731 45.9051 32.3807 45.9051 34.8034C45.9051 37.2262 43.8974 39.2341 41.4748 39.2341ZM15.5253 34.525C17.948 34.525 19.9556 36.5326 19.9556 38.9553C19.9556 41.378 17.948 43.3856 15.5253 43.3856C13.1026 43.3856 11.095 41.378 11.095 38.9553C11.095 36.5326 13.1026 34.525 15.5253 34.525Z" fill="black" stroke="black"></path>
</svg>
